# xmcd
#
# Track frame offsets: 
#        150
#        21346
#        37137
#        59847
#        76232
#        88447
#        117788
#        133198
#        154529
#        181067
#        194534
#        215559
#        234608
#        251499
#        264910
#
# Disc length: 3957 seconds
#
# Revision: 0
# Processed by: cddbd v1.5.2PL0 Copyright (c) Steve Scherf et al.
# Submitted via: ExactAudioCopy v0.99pb4
#
DISCID=d80f730f
DTITLE=Peter Green - Supernatural [CD2]
DYEAR=2007
DGENRE=Blues-Rock
TTITLE0=Heart Of Stone
TTITLE1=I'm A Steady Rollin' Man (feat. Otis Rush)
TTITLE2=Big Change Is Gonna Come
TTITLE3=Homework
TTITLE4=When You Got A Good Friend
TTITLE5=You'll Be Sorry Someday
TTITLE6=Phonograph Blues
TTITLE7=Love In Vain Blues
TTITLE8=Burglar
TTITLE9=From Four Until Late (feat. Dr. John)
TTITLE10=Hiding In Shadows
TTITLE11=Sweet Home Chicago (feat. Paul Rodgers)
TTITLE12=Hitch Hiking Woman
TTITLE13=Me and The Devil Blues
TTITLE14=Going Down
EXTD=
EXTT0=
EXTT1=
EXTT2=
EXTT3=
EXTT4=
EXTT5=
EXTT6=
EXTT7=
EXTT8=
EXTT9=
EXTT10=
EXTT11=
EXTT12=
EXTT13=
EXTT14=
PLAYORDER=
